# xmcd
#
# Track frame offsets:
#	150
#	17591
#	34452
#	52273
#	72612
#	88133
#	103578
#	115622
#	134270
#	150716
#	168116
#	184442
#	201399
#	220523
#	236097
#
# Disc length: 3336 seconds
#
# Revision: 2
# Processed by: cddbd v1.5.2PL0 Copyright (c) Steve Scherf et al.
# Submitted via: audiograbber 1.83.01
#
DISCID=db0d060f
DTITLE=Blake Shelton - Loaded The Best Of
DYEAR=2010
DGENRE=Country
TTITLE0=Austin
TTITLE1=Ol' Red
TTITLE2=The Baby
TTITLE3=Playboys Of The Southwestern World
TTITLE4=Some Beach
TTITLE5=Goodbye Time
TTITLE6=Nobody But Me
TTITLE7=Don't Make Me
TTITLE8=The More I Drink
TTITLE9=Home
TTITLE10=She Wouldn't Be Gone
TTITLE11=Hillbilly Bone (Feat. Trace Adkins)
TTITLE12=Kiss My Country Ass
TTITLE13=All About Tonight
TTITLE14=Who Are You When I'm Not Looking
EXTD=
EXTT0=
EXTT1=
EXTT2=
EXTT3=
EXTT4=
EXTT5=
EXTT6=
EXTT7=
EXTT8=
EXTT9=
EXTT10=
EXTT11=
EXTT12=
EXTT13=
EXTT14=
PLAYORDER=
